<svg width="244" height="102" viewBox="0 0 244 102" fill="none" xmlns="http://www.w3.org/2000/svg">
<rect x="0.5" y="0.5" width="243" height="101" rx="7.5" stroke="#1D1F2C"/>
<path d="M130.577 53.5422H134L17.6062 53.9938C16.7201 53.9972 16 53.2799 16 52.3938V48.9226C16 48.0389 16.7163 47.3226 17.6 47.3226H17.986C18.8232 47.3226 19.5189 46.677 19.5815 45.8421L20.5198 33.3154C20.5729 32.6065 21.0874 32.0176 21.7829 31.8699L26.5989 30.847C27.1692 30.7258 27.6285 30.304 27.7976 29.7461L31.2167 18.4676C31.561 17.3317 32.9787 16.953 33.8436 17.7658L43.5589 26.8964C43.6237 26.9573 43.6833 27.0235 43.7371 27.0943L50.2257 35.6335C50.5282 36.0317 50.9995 36.2655 51.4996 36.2655H59.3281L65.7299 35.7296C66.063 35.7017 66.3791 35.5702 66.6336 35.3535L71.6474 31.085C72.2499 30.572 73.1369 30.5765 73.7341 31.0956L79.8967 36.4515C80.0118 36.5516 80.1407 36.6347 80.2795 36.6983L86.0625 39.3494L92.2434 41.5128C92.7458 41.6886 93.3028 41.6031 93.7293 41.2846L97.4929 38.4743C98.1288 37.9995 99.0167 38.0625 99.5791 38.6225L103.227 42.2547C103.766 42.791 104.608 42.8743 105.241 42.4539L115.237 35.8196C116.002 35.3113 117.038 35.5512 117.502 36.3445L122.407 44.7239C122.453 44.8034 122.506 44.8787 122.566 44.9491L129.356 52.9755C129.66 53.3349 130.107 53.5422 130.577 53.5422Z" fill="url(#paint0_linear_5352_9899)"/>
<path d="M17.504 82V70.8H22.112C23.104 70.8 23.952 70.96 24.656 71.28C25.3707 71.6 25.92 72.0587 26.304 72.656C26.688 73.2533 26.88 73.9627 26.88 74.784C26.88 75.6053 26.688 76.3147 26.304 76.912C25.92 77.5093 25.3707 77.968 24.656 78.288C23.952 78.608 23.104 78.768 22.112 78.768H18.656L19.584 77.792V82H17.504ZM19.584 78.016L18.656 77.008H22.016C22.9333 77.008 23.6213 76.816 24.08 76.432C24.5493 76.0373 24.784 75.488 24.784 74.784C24.784 74.0693 24.5493 73.52 24.08 73.136C23.6213 72.752 22.9333 72.56 22.016 72.56H18.656L19.584 71.536V78.016ZM32.7499 82.112C31.8005 82.112 30.9685 81.9253 30.2539 81.552C29.5499 81.168 29.0005 80.6453 28.6059 79.984C28.2219 79.3227 28.0299 78.5707 28.0299 77.728C28.0299 76.8747 28.2165 76.1227 28.5899 75.472C28.9739 74.8107 29.4965 74.2933 30.1579 73.92C30.8299 73.5467 31.5925 73.36 32.4459 73.36C33.2779 73.36 34.0192 73.5413 34.6699 73.904C35.3205 74.2667 35.8325 74.7787 36.2059 75.44C36.5792 76.1013 36.7659 76.88 36.7659 77.776C36.7659 77.8613 36.7605 77.9573 36.7499 78.064C36.7499 78.1707 36.7445 78.272 36.7339 78.368H29.6139V77.04H35.6779L34.8939 77.456C34.9045 76.9653 34.8032 76.5333 34.5899 76.16C34.3765 75.7867 34.0832 75.4933 33.7099 75.28C33.3472 75.0667 32.9259 74.96 32.4459 74.96C31.9552 74.96 31.5232 75.0667 31.1499 75.28C30.7872 75.4933 30.4992 75.792 30.2859 76.176C30.0832 76.5493 29.9819 76.992 29.9819 77.504V77.824C29.9819 78.336 30.0992 78.7893 30.3339 79.184C30.5685 79.5787 30.8992 79.8827 31.3259 80.096C31.7525 80.3093 32.2432 80.416 32.7979 80.416C33.2779 80.416 33.7099 80.3413 34.0939 80.192C34.4779 80.0427 34.8192 79.808 35.1179 79.488L36.1899 80.72C35.8059 81.168 35.3205 81.5147 34.7339 81.76C34.1579 81.9947 33.4965 82.112 32.7499 82.112ZM43.535 73.36C44.2177 73.36 44.8257 73.4933 45.359 73.76C45.903 74.0267 46.3297 74.4373 46.639 74.992C46.9483 75.536 47.103 76.24 47.103 77.104V82H45.103V77.36C45.103 76.6027 44.9217 76.0373 44.559 75.664C44.207 75.2907 43.711 75.104 43.071 75.104C42.6017 75.104 42.1857 75.2 41.823 75.392C41.4603 75.584 41.1777 75.872 40.975 76.256C40.783 76.6293 40.687 77.104 40.687 77.68V82H38.687V73.456H40.591V75.76L40.255 75.056C40.5537 74.512 40.9857 74.096 41.551 73.808C42.127 73.5093 42.7883 73.36 43.535 73.36ZM53.2718 82.112C52.4504 82.112 51.7091 81.9307 51.0478 81.568C50.3971 81.1947 49.8851 80.6827 49.5118 80.032C49.1384 79.3813 48.9518 78.6133 48.9518 77.728C48.9518 76.8427 49.1384 76.0747 49.5118 75.424C49.8851 74.7733 50.3971 74.2667 51.0478 73.904C51.7091 73.5413 52.4504 73.36 53.2718 73.36C53.9864 73.36 54.6264 73.52 55.1918 73.84C55.7571 74.1493 56.2051 74.624 56.5358 75.264C56.8664 75.904 57.0318 76.7253 57.0318 77.728C57.0318 78.72 56.8718 79.5413 56.5518 80.192C56.2318 80.832 55.7891 81.312 55.2238 81.632C54.6584 81.952 54.0078 82.112 53.2718 82.112ZM53.5118 80.4C53.9918 80.4 54.4184 80.2933 54.7918 80.08C55.1758 79.8667 55.4798 79.5573 55.7038 79.152C55.9384 78.7467 56.0558 78.272 56.0558 77.728C56.0558 77.1733 55.9384 76.6987 55.7038 76.304C55.4798 75.8987 55.1758 75.5893 54.7918 75.376C54.4184 75.1627 53.9918 75.056 53.5118 75.056C53.0318 75.056 52.5998 75.1627 52.2158 75.376C51.8424 75.5893 51.5384 75.8987 51.3038 76.304C51.0798 76.6987 50.9678 77.1733 50.9678 77.728C50.9678 78.272 51.0798 78.7467 51.3038 79.152C51.5384 79.5573 51.8424 79.8667 52.2158 80.08C52.5998 80.2933 53.0318 80.4 53.5118 80.4ZM56.1038 82V79.984L56.1838 77.712L56.0238 75.44V70.128H58.0078V82H56.1038ZM60.6401 82V73.456H62.6401V82H60.6401ZM61.6481 72.048C61.2748 72.048 60.9655 71.9307 60.7201 71.696C60.4855 71.4613 60.3681 71.1787 60.3681 70.848C60.3681 70.5067 60.4855 70.224 60.7201 70C60.9655 69.7653 61.2748 69.648 61.6481 69.648C62.0215 69.648 62.3255 69.76 62.5601 69.984C62.8055 70.1973 62.9281 70.4693 62.9281 70.8C62.9281 71.152 62.8108 71.4507 62.5761 71.696C62.3415 71.9307 62.0321 72.048 61.6481 72.048ZM70.1131 73.36C70.7958 73.36 71.4038 73.4933 71.9371 73.76C72.4811 74.0267 72.9078 74.4373 73.2171 74.992C73.5265 75.536 73.6811 76.24 73.6811 77.104V82H71.6811V77.36C71.6811 76.6027 71.4998 76.0373 71.1371 75.664C70.7851 75.2907 70.2891 75.104 69.6491 75.104C69.1798 75.104 68.7638 75.2 68.4011 75.392C68.0385 75.584 67.7558 75.872 67.5531 76.256C67.3611 76.6293 67.2651 77.104 67.2651 77.68V82H65.2651V73.456H67.1691V75.76L66.8331 75.056C67.1318 74.512 67.5638 74.096 68.1291 73.808C68.7051 73.5093 69.3665 73.36 70.1131 73.36ZM80.1059 85.216C79.3165 85.216 78.5432 85.1093 77.7859 84.896C77.0392 84.6933 76.4259 84.3947 75.9459 84L76.8419 82.496C77.2152 82.8053 77.6845 83.0507 78.2499 83.232C78.8259 83.424 79.4072 83.52 79.9939 83.52C80.9325 83.52 81.6205 83.3013 82.0579 82.864C82.4952 82.4373 82.7139 81.792 82.7139 80.928V79.408L82.8739 77.472L82.8099 75.536V73.456H84.7139V80.704C84.7139 82.2507 84.3192 83.3867 83.5299 84.112C82.7405 84.848 81.5992 85.216 80.1059 85.216ZM79.8499 81.616C79.0392 81.616 78.3032 81.4453 77.6419 81.104C76.9912 80.752 76.4739 80.2667 76.0899 79.648C75.7165 79.0293 75.5299 78.304 75.5299 77.472C75.5299 76.6507 75.7165 75.9307 76.0899 75.312C76.4739 74.6933 76.9912 74.2133 77.6419 73.872C78.3032 73.5307 79.0392 73.36 79.8499 73.36C80.5752 73.36 81.2259 73.504 81.8019 73.792C82.3779 74.08 82.8365 74.528 83.1779 75.136C83.5299 75.744 83.7059 76.5227 83.7059 77.472C83.7059 78.4213 83.5299 79.2053 83.1779 79.824C82.8365 80.432 82.3779 80.8853 81.8019 81.184C81.2259 81.472 80.5752 81.616 79.8499 81.616ZM80.1539 79.92C80.6552 79.92 81.1032 79.8187 81.4979 79.616C81.8925 79.4027 82.1965 79.1147 82.4099 78.752C82.6339 78.3787 82.7459 77.952 82.7459 77.472C82.7459 76.992 82.6339 76.5707 82.4099 76.208C82.1965 75.8347 81.8925 75.552 81.4979 75.36C81.1032 75.1573 80.6552 75.056 80.1539 75.056C79.6525 75.056 79.1992 75.1573 78.7939 75.36C78.3992 75.552 78.0899 75.8347 77.8659 76.208C77.6525 76.5707 77.5459 76.992 77.5459 77.472C77.5459 77.952 77.6525 78.3787 77.8659 78.752C78.0899 79.1147 78.3992 79.4027 78.7939 79.616C79.1992 79.8187 79.6525 79.92 80.1539 79.92ZM94.2291 82V72.56H90.5171V70.8H100.021V72.56H96.3091V82H94.2291ZM101.187 82V73.456H103.091V75.808L102.867 75.12C103.123 74.544 103.523 74.1067 104.067 73.808C104.622 73.5093 105.31 73.36 106.131 73.36V75.264C106.046 75.2427 105.966 75.232 105.891 75.232C105.816 75.2213 105.742 75.216 105.667 75.216C104.91 75.216 104.307 75.44 103.859 75.888C103.411 76.3253 103.187 76.9813 103.187 77.856V82H101.187ZM112.482 82V80.272L112.37 79.904V76.88C112.37 76.2933 112.194 75.84 111.842 75.52C111.49 75.1893 110.957 75.024 110.242 75.024C109.762 75.024 109.288 75.0987 108.818 75.248C108.36 75.3973 107.97 75.6053 107.65 75.872L106.866 74.416C107.325 74.064 107.869 73.8027 108.498 73.632C109.138 73.4507 109.8 73.36 110.482 73.36C111.72 73.36 112.674 73.6587 113.346 74.256C114.029 74.8427 114.37 75.7547 114.37 76.992V82H112.482ZM109.794 82.112C109.154 82.112 108.594 82.0053 108.114 81.792C107.634 81.568 107.261 81.264 106.994 80.88C106.738 80.4853 106.61 80.0427 106.61 79.552C106.61 79.072 106.722 78.64 106.946 78.256C107.181 77.872 107.56 77.568 108.082 77.344C108.605 77.12 109.298 77.008 110.162 77.008H112.642V78.336H110.306C109.624 78.336 109.165 78.448 108.93 78.672C108.696 78.8853 108.578 79.152 108.578 79.472C108.578 79.8347 108.722 80.1227 109.01 80.336C109.298 80.5493 109.698 80.656 110.21 80.656C110.701 80.656 111.138 80.544 111.522 80.32C111.917 80.096 112.2 79.7653 112.37 79.328L112.706 80.528C112.514 81.0293 112.168 81.4187 111.666 81.696C111.176 81.9733 110.552 82.112 109.794 82.112ZM121.785 73.36C122.468 73.36 123.076 73.4933 123.609 73.76C124.153 74.0267 124.58 74.4373 124.889 74.992C125.198 75.536 125.353 76.24 125.353 77.104V82H123.353V77.36C123.353 76.6027 123.172 76.0373 122.809 75.664C122.457 75.2907 121.961 75.104 121.321 75.104C120.852 75.104 120.436 75.2 120.073 75.392C119.71 75.584 119.428 75.872 119.225 76.256C119.033 76.6293 118.937 77.104 118.937 77.68V82H116.937V73.456H118.841V75.76L118.505 75.056C118.804 74.512 119.236 74.096 119.801 73.808C120.377 73.5093 121.038 73.36 121.785 73.36ZM130.53 82.112C129.815 82.112 129.127 82.0213 128.466 81.84C127.815 81.648 127.298 81.4187 126.914 81.152L127.682 79.632C128.066 79.8773 128.525 80.08 129.058 80.24C129.591 80.4 130.125 80.48 130.658 80.48C131.287 80.48 131.741 80.3947 132.018 80.224C132.306 80.0533 132.45 79.824 132.45 79.536C132.45 79.3013 132.354 79.1253 132.162 79.008C131.97 78.88 131.719 78.784 131.41 78.72C131.101 78.656 130.754 78.5973 130.37 78.544C129.997 78.4907 129.618 78.4213 129.234 78.336C128.861 78.24 128.519 78.1067 128.21 77.936C127.901 77.7547 127.65 77.5147 127.458 77.216C127.266 76.9173 127.17 76.5227 127.17 76.032C127.17 75.488 127.325 75.0187 127.634 74.624C127.943 74.2187 128.375 73.9093 128.93 73.696C129.495 73.472 130.162 73.36 130.93 73.36C131.506 73.36 132.087 73.424 132.674 73.552C133.261 73.68 133.746 73.8613 134.13 74.096L133.362 75.616C132.957 75.3707 132.546 75.2053 132.13 75.12C131.725 75.024 131.319 74.976 130.914 74.976C130.306 74.976 129.853 75.0667 129.554 75.248C129.266 75.4293 129.122 75.6587 129.122 75.936C129.122 76.192 129.218 76.384 129.41 76.512C129.602 76.64 129.853 76.7413 130.162 76.816C130.471 76.8907 130.813 76.9547 131.186 77.008C131.57 77.0507 131.949 77.12 132.322 77.216C132.695 77.312 133.037 77.4453 133.346 77.616C133.666 77.776 133.922 78.0053 134.114 78.304C134.306 78.6027 134.402 78.992 134.402 79.472C134.402 80.0053 134.242 80.4693 133.922 80.864C133.613 81.2587 133.17 81.568 132.594 81.792C132.018 82.0053 131.33 82.112 130.53 82.112ZM141.389 82V80.272L141.277 79.904V76.88C141.277 76.2933 141.101 75.84 140.749 75.52C140.397 75.1893 139.863 75.024 139.149 75.024C138.669 75.024 138.194 75.0987 137.725 75.248C137.266 75.3973 136.877 75.6053 136.557 75.872L135.773 74.416C136.231 74.064 136.775 73.8027 137.405 73.632C138.045 73.4507 138.706 73.36 139.389 73.36C140.626 73.36 141.581 73.6587 142.253 74.256C142.935 74.8427 143.277 75.7547 143.277 76.992V82H141.389ZM138.701 82.112C138.061 82.112 137.501 82.0053 137.021 81.792C136.541 81.568 136.167 81.264 135.901 80.88C135.645 80.4853 135.517 80.0427 135.517 79.552C135.517 79.072 135.629 78.64 135.853 78.256C136.087 77.872 136.466 77.568 136.989 77.344C137.511 77.12 138.205 77.008 139.069 77.008H141.549V78.336H139.213C138.53 78.336 138.071 78.448 137.837 78.672C137.602 78.8853 137.485 79.152 137.485 79.472C137.485 79.8347 137.629 80.1227 137.917 80.336C138.205 80.5493 138.605 80.656 139.117 80.656C139.607 80.656 140.045 80.544 140.429 80.32C140.823 80.096 141.106 79.7653 141.277 79.328L141.613 80.528C141.421 81.0293 141.074 81.4187 140.573 81.696C140.082 81.9733 139.458 82.112 138.701 82.112ZM149.779 82.112C148.883 82.112 148.083 81.9253 147.379 81.552C146.686 81.168 146.142 80.6453 145.747 79.984C145.352 79.3227 145.155 78.5707 145.155 77.728C145.155 76.8747 145.352 76.1227 145.747 75.472C146.142 74.8107 146.686 74.2933 147.379 73.92C148.083 73.5467 148.883 73.36 149.779 73.36C150.611 73.36 151.342 73.5307 151.971 73.872C152.611 74.2027 153.096 74.6933 153.427 75.344L151.891 76.24C151.635 75.8347 151.32 75.536 150.947 75.344C150.584 75.152 150.19 75.056 149.763 75.056C149.272 75.056 148.83 75.1627 148.435 75.376C148.04 75.5893 147.731 75.8987 147.507 76.304C147.283 76.6987 147.171 77.1733 147.171 77.728C147.171 78.2827 147.283 78.7627 147.507 79.168C147.731 79.5627 148.04 79.8667 148.435 80.08C148.83 80.2933 149.272 80.4 149.763 80.4C150.19 80.4 150.584 80.304 150.947 80.112C151.32 79.92 151.635 79.6213 151.891 79.216L153.427 80.112C153.096 80.752 152.611 81.248 151.971 81.6C151.342 81.9413 150.611 82.112 149.779 82.112ZM158.481 82.112C157.542 82.112 156.817 81.872 156.305 81.392C155.793 80.9013 155.537 80.1813 155.537 79.232V71.568H157.537V79.184C157.537 79.5893 157.638 79.904 157.841 80.128C158.054 80.352 158.348 80.464 158.721 80.464C159.169 80.464 159.542 80.3467 159.841 80.112L160.401 81.536C160.166 81.728 159.878 81.872 159.537 81.968C159.196 82.064 158.844 82.112 158.481 82.112ZM154.129 75.12V73.52H159.825V75.12H154.129ZM162.046 82V73.456H164.046V82H162.046ZM163.054 72.048C162.681 72.048 162.372 71.9307 162.126 71.696C161.892 71.4613 161.774 71.1787 161.774 70.848C161.774 70.5067 161.892 70.224 162.126 70C162.372 69.7653 162.681 69.648 163.054 69.648C163.428 69.648 163.732 69.76 163.966 69.984C164.212 70.1973 164.334 70.4693 164.334 70.8C164.334 71.152 164.217 71.4507 163.982 71.696C163.748 71.9307 163.438 72.048 163.054 72.048ZM170.511 82.112C169.637 82.112 168.858 81.9253 168.175 81.552C167.493 81.168 166.954 80.6453 166.559 79.984C166.165 79.3227 165.967 78.5707 165.967 77.728C165.967 76.8747 166.165 76.1227 166.559 75.472C166.954 74.8107 167.493 74.2933 168.175 73.92C168.858 73.5467 169.637 73.36 170.511 73.36C171.397 73.36 172.181 73.5467 172.863 73.92C173.557 74.2933 174.095 74.8053 174.479 75.456C174.874 76.1067 175.071 76.864 175.071 77.728C175.071 78.5707 174.874 79.3227 174.479 79.984C174.095 80.6453 173.557 81.168 172.863 81.552C172.181 81.9253 171.397 82.112 170.511 82.112ZM170.511 80.4C171.002 80.4 171.439 80.2933 171.823 80.08C172.207 79.8667 172.506 79.5573 172.719 79.152C172.943 78.7467 173.055 78.272 173.055 77.728C173.055 77.1733 172.943 76.6987 172.719 76.304C172.506 75.8987 172.207 75.5893 171.823 75.376C171.439 75.1627 171.007 75.056 170.527 75.056C170.037 75.056 169.599 75.1627 169.215 75.376C168.842 75.5893 168.543 75.8987 168.319 76.304C168.095 76.6987 167.983 77.1733 167.983 77.728C167.983 78.272 168.095 78.7467 168.319 79.152C168.543 79.5573 168.842 79.8667 169.215 80.08C169.599 80.2933 170.031 80.4 170.511 80.4ZM181.832 73.36C182.515 73.36 183.123 73.4933 183.656 73.76C184.2 74.0267 184.627 74.4373 184.936 74.992C185.245 75.536 185.4 76.24 185.4 77.104V82H183.4V77.36C183.4 76.6027 183.219 76.0373 182.856 75.664C182.504 75.2907 182.008 75.104 181.368 75.104C180.899 75.104 180.483 75.2 180.12 75.392C179.757 75.584 179.475 75.872 179.272 76.256C179.08 76.6293 178.984 77.104 178.984 77.68V82H176.984V73.456H178.888V75.76L178.552 75.056C178.851 74.512 179.283 74.096 179.848 73.808C180.424 73.5093 181.085 73.36 181.832 73.36ZM192.551 82V70.8H197.159C198.151 70.8 198.999 70.96 199.703 71.28C200.418 71.6 200.967 72.0587 201.351 72.656C201.735 73.2533 201.927 73.9627 201.927 74.784C201.927 75.6053 201.735 76.3147 201.351 76.912C200.967 77.5093 200.418 77.968 199.703 78.288C198.999 78.608 198.151 78.768 197.159 78.768H193.703L194.631 77.792V82H192.551ZM194.631 78.016L193.703 77.008H197.063C197.98 77.008 198.668 76.816 199.127 76.432C199.596 76.0373 199.831 75.488 199.831 74.784C199.831 74.0693 199.596 73.52 199.127 73.136C198.668 72.752 197.98 72.56 197.063 72.56H193.703L194.631 71.536V78.016ZM207.621 82.112C206.746 82.112 205.967 81.9253 205.285 81.552C204.602 81.168 204.063 80.6453 203.669 79.984C203.274 79.3227 203.077 78.5707 203.077 77.728C203.077 76.8747 203.274 76.1227 203.669 75.472C204.063 74.8107 204.602 74.2933 205.285 73.92C205.967 73.5467 206.746 73.36 207.621 73.36C208.506 73.36 209.29 73.5467 209.973 73.92C210.666 74.2933 211.205 74.8053 211.589 75.456C211.983 76.1067 212.181 76.864 212.181 77.728C212.181 78.5707 211.983 79.3227 211.589 79.984C211.205 80.6453 210.666 81.168 209.973 81.552C209.29 81.9253 208.506 82.112 207.621 82.112ZM207.621 80.4C208.111 80.4 208.549 80.2933 208.933 80.08C209.317 79.8667 209.615 79.5573 209.829 79.152C210.053 78.7467 210.165 78.272 210.165 77.728C210.165 77.1733 210.053 76.6987 209.829 76.304C209.615 75.8987 209.317 75.5893 208.933 75.376C208.549 75.1627 208.117 75.056 207.637 75.056C207.146 75.056 206.709 75.1627 206.325 75.376C205.951 75.5893 205.653 75.8987 205.429 76.304C205.205 76.6987 205.093 77.1733 205.093 77.728C205.093 78.272 205.205 78.7467 205.429 79.152C205.653 79.5573 205.951 79.8667 206.325 80.08C206.709 80.2933 207.141 80.4 207.621 80.4ZM217.933 82.112C217.059 82.112 216.28 81.9253 215.597 81.552C214.915 81.168 214.376 80.6453 213.981 79.984C213.587 79.3227 213.389 78.5707 213.389 77.728C213.389 76.8747 213.587 76.1227 213.981 75.472C214.376 74.8107 214.915 74.2933 215.597 73.92C216.28 73.5467 217.059 73.36 217.933 73.36C218.819 73.36 219.603 73.5467 220.285 73.92C220.979 74.2933 221.517 74.8053 221.901 75.456C222.296 76.1067 222.493 76.864 222.493 77.728C222.493 78.5707 222.296 79.3227 221.901 79.984C221.517 80.6453 220.979 81.168 220.285 81.552C219.603 81.9253 218.819 82.112 217.933 82.112ZM217.933 80.4C218.424 80.4 218.861 80.2933 219.245 80.08C219.629 79.8667 219.928 79.5573 220.141 79.152C220.365 78.7467 220.477 78.272 220.477 77.728C220.477 77.1733 220.365 76.6987 220.141 76.304C219.928 75.8987 219.629 75.5893 219.245 75.376C218.861 75.1627 218.429 75.056 217.949 75.056C217.459 75.056 217.021 75.1627 216.637 75.376C216.264 75.5893 215.965 75.8987 215.741 76.304C215.517 76.6987 215.405 77.1733 215.405 77.728C215.405 78.272 215.517 78.7467 215.741 79.152C215.965 79.5573 216.264 79.8667 216.637 80.08C217.021 80.2933 217.453 80.4 217.933 80.4ZM224.406 82V70.128H226.406V82H224.406Z" fill="white"/>
<defs>
<linearGradient id="paint0_linear_5352_9899" x1="74.3059" y1="-52.7093" x2="75.0287" y2="53.542" gradientUnits="userSpaceOnUse">
<stop stop-color="#45B36B"/>
<stop offset="1" stop-color="#45B36B" stop-opacity="0"/>
</linearGradient>
</defs>
</svg>
