<svg width="16" height="16" viewBox="0 0 16 16" fill="none" xmlns="http://www.w3.org/2000/svg">
<path d="M10.0002 2V4.66667C10.0002 4.84348 10.0704 5.01305 10.1954 5.13807C10.3204 5.2631 10.49 5.33333 10.6668 5.33333H13.3335M10.0002 2H7.3335C6.97987 2 6.64074 2.14048 6.39069 2.39052C6.14064 2.64057 6.00016 2.97971 6.00016 3.33333V10C6.00016 10.3536 6.14064 10.6928 6.39069 10.9428C6.64074 11.1929 6.97987 11.3333 7.3335 11.3333H12.0002C12.3538 11.3333 12.6929 11.1929 12.943 10.9428C13.193 10.6928 13.3335 10.3536 13.3335 10V5.33333M10.0002 2L13.3335 5.33333M10.6668 11.3333V12.6667C10.6668 13.0203 10.5264 13.3594 10.2763 13.6095C10.0263 13.8595 9.68712 14 9.3335 14H4.66683C4.31321 14 3.97407 13.8595 3.72402 13.6095C3.47397 13.3594 3.3335 13.0203 3.3335 12.6667V6C3.3335 5.64638 3.47397 5.30724 3.72402 5.05719C3.97407 4.80714 4.31321 4.66667 4.66683 4.66667H6.00016" stroke="#D2D2D5" stroke-linecap="round" stroke-linejoin="round"/>
</svg>
